<svg xmlns="http://www.w3.org/2000/svg" width="24" height="24" viewBox="0 0 24 24" fill="none" stroke="currentColor" strokeWidth="2" strokeLinecap="round" strokeLinejoin="round" class="lucide lucide-circle-dashed">
      <title>Tennis Ball Icon</title>
      <path d="M10.1 2.182a10 10 0 0 1 3.8 0"/>
      <path d="M13.9 21.818a10 10 0 0 1-3.8 0"/>
      <path d="M2.182 10.1a10 10 0 0 1 0 3.8"/>
      <path d="M21.818 13.9a10 10 0 0 1 0-3.8"/>
      <path d="M6.441 3.667a10.003 10.003 0 0 1 3.791-1.392"/>
      <path d="M3.667 6.441a10.003 10.003 0 0 1-1.392 3.791"/>
      <path d="M17.559 20.333a10.003 10.003 0 0 1-3.791 1.392"/>
      <path d="M20.333 17.559a10.003 10.003 0 0 1 1.392-3.791"/>
      <path d="M12 2a10 10 0 1 0 10 10c0-4.97-4.03-9-9-9Z"/>
      <path d="M19.07 4.93A10 10 0 0 0 4.93 19.07"/>
    </svg>